:FULLY-SPECIFIED
:FORCE-ALL-JOINTS-BE-3DOF
:DEGREES
275
root 9.92414 16.7787 1.71858 6.06316 -2.71012 1.56174
lfemur -18.3703 6.15562 -27.9094
ltibia 30.6449 0 0
lfoot -17.1424 5.68789 0
ltoes 0.926225 0 0
rfemur -24.3299 -1.38072 18.0586
rtibia 55.6268 0 0
rfoot -15.3287 -9.64731 0
rtoes -16.0153 0 0
lowerback -5.08921 -1.65043 -2.6479
upperback -0.688056 -2.10575 2.08948
thorax 2.35253 -1.08983 3.47728
lowerneck -21.393 -4.00806 -11.821
upperneck 21.3675 -4.78374 11.9125
head 11.0549 -1.72202 5.61569
lclavicle -2.62591e-014 1.71212e-014 0
lhumerus -21.9909 -13.49 86.8012
lradius 23.8581 0 0
lwrist -0.470885 0 0
lhand -13.3678 -24.0819 0
lfingers 7.12502 0 0
lthumb 12.7381 5.50132 0
rclavicle -2.62591e-014 1.71212e-014 0
rhumerus -46.0261 7.87762 -83.5167
rradius 41.7819 0 0
rwrist -23.2133 0 0
rhand -29.1106 -22.5655 0
rfingers 7.12502 0 0
rthumb -2.45849 -52.5308 0
276
root 9.94313 16.7923 1.84706 5.93194 -2.56786 1.67262
lfemur -17.4852 6.03391 -28.0478
ltibia 30.2362 0 0
lfoot -17.4453 5.68785 0
ltoes 0.773765 0 0
rfemur -25.5305 -1.44449 18.0359
rtibia 56.3356 0 0
rfoot -16.3504 -10.1715 0
rtoes -16.0178 0 0
lowerback -5.06043 -1.79117 -2.7134
upperback -0.599481 -2.29095 2.10584
thorax 2.44047 -1.18475 3.51897
lowerneck -21.473 -3.94144 -11.754
upperneck 21.4953 -4.69194 11.8288
head 11.0972 -1.68183 5.5921
lclavicle -2.84915e-014 1.68775e-014 0
lhumerus -21.1279 -13.7955 86.7258
lradius 24.0141 0 0
lwrist -0.291978 0 0
lhand -13.5262 -24.091 0
lfingers 7.12502 0 0
lthumb 12.5855 5.50305 0
rclavicle -2.84915e-014 1.68775e-014 0
rhumerus -45.9695 7.80673 -83.348
rradius 41.8221 0 0
rwrist -23.1285 0 0
rhand -29.0794 -22.3957 0
rfingers 7.12502 0 0
rthumb -2.42832 -52.3615 0
277
root 9.96212 16.8058 1.97554 5.80071 -2.42559 1.7835
lfemur -16.6001 5.9122 -28.1862
ltibia 29.8275 0 0
lfoot -17.7483 5.68781 0
ltoes 0.621305 0 0
rfemur -26.7311 -1.50827 18.0131
rtibia 57.0444 0 0
rfoot -17.3721 -10.6957 0
rtoes -16.0202 0 0
lowerback -5.03165 -1.93191 -2.77889
upperback -0.510905 -2.47615 2.1222
thorax 2.5284 -1.27968 3.56065
lowerneck -21.553 -3.87481 -11.6871
upperneck 21.6231 -4.60013 11.7451
head 11.1395 -1.64164 5.5685
lclavicle -3.07239e-014 1.66338e-014 0
lhumerus -20.2648 -14.1009 86.6504
lradius 24.1701 0 0
lwrist -0.11307 0 0
lhand -13.6846 -24.1001 0
lfingers 7.12502 0 0
lthumb 12.4328 5.50478 0
rclavicle -3.07239e-014 1.66338e-014 0
rhumerus -45.9129 7.73584 -83.1793
rradius 41.8622 0 0
rwrist -23.0437 0 0
rhand -29.0481 -22.226 0
rfingers 7.12502 0 0
rthumb -2.39815 -52.1921 0
278
root 9.98111 16.8194 2.10401 5.66949 -2.28333 1.89437
lfemur -15.715 5.79048 -28.3246
ltibia 29.4188 0 0
lfoot -18.0512 5.68777 0
ltoes 0.468844 0 0
rfemur -27.9317 -1.57205 17.9904
rtibia 57.7533 0 0
rfoot -18.3938 -11.2199 0
rtoes -16.0227 0 0
lowerback -5.00287 -2.07265 -2.84439
upperback -0.42233 -2.66135 2.13856
thorax 2.61633 -1.3746 3.60233
lowerneck -21.633 -3.80819 -11.6201
upperneck 21.7509 -4.50833 11.6613
head 11.1818 -1.60145 5.54491
lclavicle -3.29564e-014 1.63901e-014 0
lhumerus -19.4018 -14.4063 86.575
lradius 24.3261 0 0
lwrist 0.0658367 0 0
lhand -13.8431 -24.1093 0
lfingers 7.12502 0 0
lthumb 12.2802 5.50651 0
rclavicle -3.29564e-014 1.63901e-014 0
rhumerus -45.8563 7.66495 -83.0106
rradius 41.9024 0 0
rwrist -22.959 0 0
rhand -29.0169 -22.0563 0
rfingers 7.12502 0 0
rthumb -2.36798 -52.0228 0
279
root 10.0001 16.833 2.23249 5.53826 -2.14106 2.00525
lfemur -14.8298 5.66877 -28.463
ltibia 29.0101 0 0
lfoot -18.3541 5.68772 0
ltoes 0.316384 0 0
rfemur -29.1323 -1.63583 17.9677
rtibia 58.4621 0 0
rfoot -19.4154 -11.7441 0
rtoes -16.0251 0 0
lowerback -4.97409 -2.2134 -2.90988
upperback -0.333755 -2.84655 2.15492
thorax 2.70427 -1.46952 3.64402
lowerneck -21.7129 -3.74156 -11.5532
upperneck 21.8786 -4.41653 11.5776
head 11.224 -1.56125 5.52131
lclavicle -3.51888e-014 1.61465e-014 0
lhumerus -18.5387 -14.7118 86.4996
lradius 24.482 0 0
lwrist 0.244744 0 0
lhand -14.0015 -24.1184 0
lfingers 7.12502 0 0
lthumb 12.1275 5.50824 0
rclavicle -3.51888e-014 1.61465e-014 0
rhumerus -45.7997 7.59406 -82.8418
rradius 41.9426 0 0
rwrist -22.8742 0 0
rhand -28.9856 -21.8865 0
rfingers 7.12502 0 0
rthumb -2.3378 -51.8534 0
280
root 10.0191 16.8466 2.36097 5.40704 -1.9988 2.11613
lfemur -13.9447 5.54706 -28.6014
ltibia 28.6014 0 0
lfoot -18.657 5.68768 0
ltoes 0.163924 0 0
rfemur -30.3329 -1.69961 17.945
rtibia 59.1709 0 0
rfoot -20.4371 -12.2683 0
rtoes -16.0276 0 0
lowerback -4.94531 -2.35414 -2.97538
upperback -0.24518 -3.03175 2.17128
thorax 2.7922 -1.56444 3.6857
lowerneck -21.7929 -3.67494 -11.4862
upperneck 22.0064 -4.32473 11.4939
head 11.2663 -1.52106 5.49772
lclavicle -3.74212e-014 1.59028e-014 0
lhumerus -17.6757 -15.0172 86.4242
lradius 24.638 0 0
lwrist 0.423651 0 0
lhand -14.1599 -24.1275 0
lfingers 7.12502 0 0
lthumb 11.9749 5.50997 0
rclavicle -3.74212e-014 1.59028e-014 0
rhumerus -45.7431 7.52317 -82.6731
rradius 41.9828 0 0
rwrist -22.7894 0 0
rhand -28.9544 -21.7168 0
rfingers 7.12502 0 0
rthumb -2.30763 -51.6841 0
281
root 10.0176 16.8409 2.50474 5.48188 -1.67469 2.20507
lfemur -12.9885 5.47454 -28.5627
ltibia 27.6788 0 0
lfoot -18.5133 5.48906 0
ltoes 0.163818 0 0
rfemur -30.7563 -1.22019 17.457
rtibia 58.0473 0 0
rfoot -20.7281 -12.4587 0
rtoes -16.1977 0 0
lowerback -5.05326 -2.43518 -3.09528
upperback -0.262042 -3.12571 2.16237
thorax 2.85455 -1.61399 3.72697
lowerneck -21.7101 -3.72131 -11.5242
upperneck 21.9987 -4.39342 11.5163
head 11.2594 -1.55526 5.50122
lclavicle -3.9187e-014 1.6108e-014 0
lhumerus -17.5306 -15.7811 86.6002
lradius 25.1055 0 0
lwrist 0.945153 0 0
lhand -14.0346 -24.0391 0
lfingers 7.12502 0 0
lthumb 12.0957 5.59016 0
rclavicle -3.9187e-014 1.6108e-014 0
rhumerus -45.8541 7.43289 -82.6586
rradius 41.663 0 0
rwrist -22.6036 0 0
rhand -28.8695 -21.8527 0
rfingers 7.12502 0 0
rthumb -2.22562 -51.8204 0
282
root 10.0162 16.8351 2.64851 5.55671 -1.35058 2.29401
lfemur -12.0323 5.40201 -28.5239
ltibia 26.7561 0 0
lfoot -18.3696 5.29045 0
ltoes 0.163713 0 0
rfemur -31.1798 -0.740771 16.9691
rtibia 56.9237 0 0
rfoot -21.0191 -12.6491 0
rtoes -16.3678 0 0
lowerback -5.1612 -2.51621 -3.21519
upperback -0.278904 -3.21967 2.15346
thorax 2.91691 -1.66354 3.76824
lowerneck -21.6272 -3.76769 -11.5621
upperneck 21.9911 -4.4621 11.5386
head 11.2524 -1.58946 5.50471
lclavicle -4.09528e-014 1.63132e-014 0
lhumerus -17.3856 -16.5451 86.7763
lradius 25.573 0 0
lwrist 1.46665 0 0
lhand -13.9092 -23.9506 0
lfingers 7.12502 0 0
lthumb 12.2165 5.67036 0
rclavicle -4.09528e-014 1.63132e-014 0
rhumerus -45.965 7.34262 -82.6441
rradius 41.3433 0 0
rwrist -22.4178 0 0
rhand -28.7846 -21.9886 0
rfingers 7.12502 0 0
rthumb -2.14362 -51.9567 0
283
root 10.0147 16.8294 2.79228 5.63155 -1.02647 2.38295
lfemur -11.0761 5.32949 -28.4852
ltibia 25.8335 0 0
lfoot -18.2259 5.09183 0
ltoes 0.163607 0 0
rfemur -31.6032 -0.261351 16.4811
rtibia 55.8001 0 0
rfoot -21.3101 -12.8395 0
rtoes -16.5379 0 0
lowerback -5.26915 -2.59725 -3.33509
upperback -0.295766 -3.31363 2.14455
thorax 2.97926 -1.71309 3.80951
lowerneck -21.5444 -3.81406 -11.6001
upperneck 21.9834 -4.53079 11.561
head 11.2455 -1.62366 5.50821
lclavicle -4.27186e-014 1.65184e-014 0
lhumerus -17.2405 -17.309 86.9523
lradius 26.0405 0 0
lwrist 1.98816 0 0
lhand -13.7839 -23.8622 0
lfingers 7.12502 0 0
lthumb 12.3373 5.75055 0
rclavicle -4.27186e-014 1.65184e-014 0
rhumerus -46.076 7.25234 -82.6296
rradius 41.0235 0 0
rwrist -22.232 0 0
rhand -28.6997 -22.1245 0
rfingers 7.12502 0 0
rthumb -2.06161 -52.093 0
284
root 10.0132 16.8237 2.93605 5.70638 -0.702363 2.47188
lfemur -10.1199 5.25696 -28.4464
ltibia 24.9109 0 0
lfoot -18.0821 4.89322 0
ltoes 0.163501 0 0
rfemur -32.0267 0.218069 15.9931
rtibia 54.6765 0 0
rfoot -21.6011 -13.0298 0
rtoes -16.7079 0 0
lowerback -5.37709 -2.67828 -3.455
upperback -0.312628 -3.4076 2.13564
thorax 3.04162 -1.76265 3.85079
lowerneck -21.4616 -3.86044 -11.6381
upperneck 21.9757 -4.59947 11.5834
head 11.2385 -1.65786 5.5117
lclavicle -4.44845e-014 1.67236e-014 0
lhumerus -17.0955 -18.073 87.1283
lradius 26.5081 0 0
lwrist 2.50966 0 0
lhand -13.6585 -23.7737 0
lfingers 7.12502 0 0
lthumb 12.4581 5.83075 0
rclavicle -4.44845e-014 1.67236e-014 0
rhumerus -46.1869 7.16206 -82.6151
rradius 40.7038 0 0
rwrist -22.0462 0 0
rhand -28.6148 -22.2603 0
rfingers 7.12502 0 0
rthumb -1.9796 -52.2292 0
285
root 10.0117 16.8179 3.07982 5.78122 -0.378253 2.56082
lfemur -9.16375 5.18444 -28.4077
ltibia 23.9883 0 0
lfoot -17.9384 4.6946 0
ltoes 0.163395 0 0
rfemur -32.4501 0.697488 15.5051
rtibia 53.5529 0 0
rfoot -21.8921 -13.2202 0
rtoes -16.878 0 0
lowerback -5.48504 -2.75932 -3.5749
upperback -0.32949 -3.50156 2.12673
thorax 3.10397 -1.8122 3.89206
lowerneck -21.3787 -3.90681 -11.676
upperneck 21.9681 -4.66816 11.6058
head 11.2316 -1.69206 5.5152
lclavicle -4.62503e-014 1.69288e-014 0
lhumerus -16.9504 -18.8369 87.3044
lradius 26.9756 0 0
lwrist 3.03116 0 0
lhand -13.5332 -23.6853 0
lfingers 7.12502 0 0
lthumb 12.5789 5.91094 0
rclavicle -4.62503e-014 1.69288e-014 0
rhumerus -46.2979 7.07179 -82.6006
rradius 40.384 0 0
rwrist -21.8604 0 0
rhand -28.5299 -22.3962 0
rfingers 7.12502 0 0
rthumb -1.8976 -52.3655 0
286
root 10.0103 16.8122 3.2236 5.85605 -0.0541439 2.64976
lfemur -8.20756 5.11191 -28.3689
ltibia 23.0656 0 0
lfoot -17.7947 4.49599 0
ltoes 0.16329 0 0
rfemur -32.8736 1.17691 15.0172
rtibia 52.4293 0 0
rfoot -22.1831 -13.4106 0
rtoes -17.0481 0 0
lowerback -5.59299 -2.84035 -3.69481
upperback -0.346352 -3.59552 2.11782
thorax 3.16632 -1.86175 3.93333
lowerneck -21.2959 -3.95319 -11.714
upperneck 21.9604 -4.73684 11.6281
head 11.2246 -1.72627 5.51869
lclavicle -4.80161e-014 1.7134e-014 0
lhumerus -16.8054 -19.6009 87.4804
lradius 27.4431 0 0
lwrist 3.55266 0 0
lhand -13.4078 -23.5968 0
lfingers 7.12502 0 0
lthumb 12.6997 5.99113 0
rclavicle -4.80161e-014 1.7134e-014 0
rhumerus -46.4088 6.98151 -82.5861
rradius 40.0643 0 0
rwrist -21.6746 0 0
rhand -28.4449 -22.5321 0
rfingers 7.12502 0 0
rthumb -1.81559 -52.5018 0
